<svg xmlns="http://www.w3.org/2000/svg" version="1.1" xmlns:xlink="http://www.w3.org/1999/xlink" xmlns:svgjs="http://svgjs.com/svgjs" width="48" height="48"><svg xmlns:dc="http://purl.org/dc/elements/1.1/" xmlns:cc="http://creativecommons.org/ns#" xmlns:rdf="http://www.w3.org/1999/02/22-rdf-syntax-ns#" xmlns:svg="http://www.w3.org/2000/svg" xmlns="http://www.w3.org/2000/svg" xmlns:sodipodi="http://sodipodi.sourceforge.net/DTD/sodipodi-0.dtd" xmlns:inkscape="http://www.inkscape.org/namespaces/inkscape" sodipodi:docname="pjb.svg" inkscape:version="1.0 (4035a4fb49, 2020-05-01)" inkscape:export-ydpi="300" inkscape:export-xdpi="300" inkscape:export-filename="E:\MEGA\Dokumenty\zivnost2022\pjlogow.png" id="SvgjsSvg1008" version="1.1" viewBox="0 0 48 48" height="48" width="48">
  <metadata id="SvgjsMetadata1007">
    <rdf:rdf>
      <cc:work rdf:about="">
        <dc:format>image/svg+xml</dc:format>
        <dc:type rdf:resource="http://purl.org/dc/dcmitype/StillImage"></dc:type>
        <dc:title></dc:title>
      </cc:work>
    </rdf:rdf>
  </metadata>
  <sodipodi:namedview inkscape:document-rotation="0" inkscape:current-layer="layer1" inkscape:window-maximized="1" inkscape:window-y="-8" inkscape:window-x="3832" inkscape:window-height="1147" inkscape:window-width="1920" inkscape:cy="25.680354" inkscape:cx="44.490478" inkscape:zoom="5.2959355" inkscape:guide-bbox="true" showguides="true" showgrid="false" inkscape:document-units="px" inkscape:pagecheckerboard="0" inkscape:pageopacity="0.0" inkscape:pageshadow="2" borderopacity="1.0" bordercolor="#666666" pagecolor="#ffffff" id="SvgjsSodipodi:namedview1006"></sodipodi:namedview>
  <defs id="SvgjsDefs1005"></defs>
  <g id="SvgjsG1004" inkscape:groupmode="layer" inkscape:label="Vrstva 1">
    <text id="SvgjsText1003" y="291.4715" x="154.08067" style="font-style:normal;font-weight:normal;font-size:40px;line-height:1.25;font-family:sans-serif;fill:#000000;fill-opacity:1;stroke:none" xml:space="preserve" svgjs:data="{&quot;leading&quot;:&quot;1.3&quot;}"><tspan y="291.4715" x="154.08067" id="SvgjsTspan1002" sodipodi:role="line" svgjs:data="{&quot;leading&quot;:&quot;1.3&quot;}"></tspan></text>
    <g aria-label="P" id="SvgjsG1001" style="font-style:normal;font-weight:normal;font-size:40px;line-height:1.25;font-family:sans-serif;fill:#000000;fill-opacity:1;stroke:none"></g>
    <path d="m 12.751646,3.3225903 h 20.284923 c -0.0126,10.2314957 0.0251,20.4638917 -0.01866,30.6948577 -0.0934,3.341868 -1.300743,6.912654 -4.160151,8.875794 -3.020929,2.11212 -6.986547,2.038587 -10.438086,1.234684 -1.52195,-0.35918 -4.891184,-0.906081 -6.296307,-1.590491 v 2.095117 c 2.74709,1.352661 7.749848,1.838864 10.788859,1.866826 3.78952,0.03448 7.746111,-1.362976 10.155348,-4.394372 2.362217,-2.904789 2.923479,-6.800095 2.790942,-10.434932 V 1.4999999 h -23.10681 c 0,0.6075238 -9e-6,1.2150382 0,1.8225904 z M 28.609593,18.049727 q 0,1.480044 -0.555019,2.941589 -0.555019,1.443036 -1.720555,2.590072 -1.165526,1.147037 -2.978588,1.86856 -1.813051,0.703023 -4.329127,0.703023 h -2.997087 v 8.676753 H 12.736121 V 10.649506 h 6.808204 q 1.794552,0 3.4411,0.407014 1.646548,0.388506 2.886082,1.276532 1.258042,0.888027 1.998064,2.294073 0.740022,1.406038 0.740022,3.422602 z m -3.422601,0.148004 q 0,-2.331072 -1.535552,-3.570606 -1.517043,-1.239542 -4.25512,-1.239542 h -3.367103 v 9.953304 h 3.071094 q 2.923081,0 4.495631,-1.276542 1.59105,-1.276541 1.59105,-3.866614 z" style="font-style:normal;font-weight:normal;font-size:78.2056px;line-height:1.25;font-family:sans-serif;fill:#000000;fill-opacity:1;stroke:none;stroke-width:1.89455" id="SvgjsPath1000" inkscape:export-xdpi="96" inkscape:export-ydpi="96"></path>
  </g>
</svg><style>@media (prefers-color-scheme: light) { :root { filter: none; } }
@media (prefers-color-scheme: dark) { :root { filter: invert(100%); } }
</style></svg>