<?xml version="1.0" encoding="UTF-8" standalone="no"?>
<svg
   xmlns:dc="http://purl.org/dc/elements/1.1/"
   xmlns:cc="http://creativecommons.org/ns#"
   xmlns:rdf="http://www.w3.org/1999/02/22-rdf-syntax-ns#"
   xmlns:svg="http://www.w3.org/2000/svg"
   xmlns="http://www.w3.org/2000/svg"
   xmlns:sodipodi="http://sodipodi.sourceforge.net/DTD/sodipodi-0.dtd"
   xmlns:inkscape="http://www.inkscape.org/namespaces/inkscape"
   width="48"
   height="48"
   viewBox="0 0 48 48"
   version="1.1"
   id="svg5"
   inkscape:export-filename="E:\MEGA\Dokumenty\zivnost2022\pjlogow.png"
   inkscape:export-xdpi="300"
   inkscape:export-ydpi="300"
   inkscape:version="1.0 (4035a4fb49, 2020-05-01)"
   sodipodi:docname="pjw.svg">
  <metadata
     id="metadata106">
    <rdf:RDF>
      <cc:Work
         rdf:about="">
        <dc:format>image/svg+xml</dc:format>
        <dc:type
           rdf:resource="http://purl.org/dc/dcmitype/StillImage" />
        <dc:title />
      </cc:Work>
    </rdf:RDF>
  </metadata>
  <sodipodi:namedview
     id="namedview7"
     pagecolor="#ffffff"
     bordercolor="#666666"
     borderopacity="1.0"
     inkscape:pageshadow="2"
     inkscape:pageopacity="0.0"
     inkscape:pagecheckerboard="0"
     inkscape:document-units="px"
     showgrid="false"
     showguides="true"
     inkscape:guide-bbox="true"
     inkscape:zoom="0.66199194"
     inkscape:cx="-665.85712"
     inkscape:cy="24.613259"
     inkscape:window-width="1920"
     inkscape:window-height="1147"
     inkscape:window-x="1912"
     inkscape:window-y="-8"
     inkscape:window-maximized="1"
     inkscape:current-layer="layer1"
     inkscape:document-rotation="0" />
  <defs
     id="defs2" />
  <g
     inkscape:label="Vrstva 1"
     inkscape:groupmode="layer"
     id="layer1">
    <text
       xml:space="preserve"
       style="font-style:normal;font-weight:normal;font-size:40px;line-height:1.25;font-family:sans-serif;fill:#000000;fill-opacity:1;stroke:none"
       x="154.08067"
       y="291.4715"
       id="text23244"><tspan
         sodipodi:role="line"
         id="tspan23242"
         x="154.08067"
         y="291.4715" /></text>
    <g
       style="font-style:normal;font-weight:normal;font-size:40px;line-height:1.25;font-family:sans-serif;fill:#000000;fill-opacity:1;stroke:none"
       id="text8878-6-0-4-3-4-8"
       aria-label="P" />
    <path
       inkscape:export-ydpi="96"
       inkscape:export-xdpi="96"
       id="text8878-1-0-2-5-9-4"
       style="font-style:normal;font-weight:normal;font-size:78.2056px;line-height:1.25;font-family:sans-serif;fill:#ffffff;fill-opacity:1;stroke:none;stroke-width:1.89455"
       d="m 12.751646,3.3225903 h 20.284923 c -0.0126,10.2314957 0.0251,20.4638917 -0.01866,30.6948577 -0.0934,3.341868 -1.300743,6.912654 -4.160151,8.875794 -3.020929,2.11212 -6.986547,2.038587 -10.438086,1.234684 -1.52195,-0.35918 -4.891184,-0.906081 -6.296307,-1.590491 v 2.095117 c 2.74709,1.352661 7.749848,1.838864 10.788859,1.866826 3.78952,0.03448 7.746111,-1.362976 10.155348,-4.394372 2.362217,-2.904789 2.923479,-6.800095 2.790942,-10.434932 V 1.4999999 h -23.10681 c 0,0.6075238 -9e-6,1.2150382 0,1.8225904 z M 28.609593,18.049727 q 0,1.480044 -0.555019,2.941589 -0.555019,1.443036 -1.720555,2.590072 -1.165526,1.147037 -2.978588,1.86856 -1.813051,0.703023 -4.329127,0.703023 h -2.997087 v 8.676753 H 12.736121 V 10.649506 h 6.808204 q 1.794552,0 3.4411,0.407014 1.646548,0.388506 2.886082,1.276532 1.258042,0.888027 1.998064,2.294073 0.740022,1.406038 0.740022,3.422602 z m -3.422601,0.148004 q 0,-2.331072 -1.535552,-3.570606 -1.517043,-1.239542 -4.25512,-1.239542 h -3.367103 v 9.953304 h 3.071094 q 2.923081,0 4.495631,-1.276542 1.59105,-1.276541 1.59105,-3.866614 z" />
  </g>
</svg>
