<?xml version="1.0" standalone="no"?>
<!DOCTYPE svg PUBLIC "-//W3C//DTD SVG 20010904//EN"
 "http://www.w3.org/TR/2001/REC-SVG-20010904/DTD/svg10.dtd">
<svg version="1.0" xmlns="http://www.w3.org/2000/svg"
 width="480.000000pt" height="480.000000pt" viewBox="0 0 480.000000 480.000000"
 preserveAspectRatio="xMidYMid meet">
<metadata>
Created by potrace 1.14, written by Peter Selinger 2001-2017
</metadata>
<g transform="translate(0.000000,480.000000) scale(0.100000,-0.100000)"
fill="#000000" stroke="none">
<path d="M1280 4560 l0 -90 1010 0 1010 0 0 -1582 c0 -1713 2 -1657 -54 -1848
-107 -371 -358 -605 -726 -680 -132 -27 -357 -30 -505 -6 -207 34 -633 129
-726 162 -37 13 -69 24 -73 24 -4 0 -5 -46 -4 -102 l3 -103 60 -24 c242 -96
618 -154 1000 -155 181 0 224 3 315 23 270 58 468 159 634 324 236 232 353
558 359 992 1 72 1 811 0 1643 l-3 1512 -1150 0 -1150 0 0 -90z"/>
<path d="M1270 2525 l0 -1205 165 0 165 0 2 433 3 432 265 6 c231 5 276 9 350
29 320 84 536 287 616 580 25 89 25 309 1 400 -62 234 -240 407 -494 481 -151
43 -227 49 -660 49 l-413 0 0 -1205z m925 901 c179 -62 276 -164 311 -325 18
-85 17 -168 -1 -256 -37 -176 -141 -284 -330 -346 -63 -21 -93 -23 -322 -27
l-253 -4 0 497 0 497 258 -4 c250 -4 259 -5 337 -32z"/>
</g>
</svg>
